<?xml version="1.0" standalone="no"?>
<!DOCTYPE svg PUBLIC "-//W3C//DTD SVG 20010904//EN"
 "http://www.w3.org/TR/2001/REC-SVG-20010904/DTD/svg10.dtd">
<svg version="1.0" xmlns="http://www.w3.org/2000/svg"
 width="700.000000pt" height="700.000000pt" viewBox="0 0 700.000000 700.000000"
 preserveAspectRatio="xMidYMid meet">
<metadata>
Created by potrace 1.11, written by Peter Selinger 2001-2013
</metadata>
<g transform="translate(0.000000,700.000000) scale(0.100000,-0.100000)"
fill="#000000" stroke="none">
<path d="M3298 6996 c-1 -2 -41 -6 -88 -10 -100 -7 -225 -22 -295 -36 -27 -5
-61 -12 -75 -14 -279 -51 -591 -154 -855 -282 -407 -197 -753 -454 -1064 -790
-94 -103 -101 -111 -182 -215 -415 -532 -669 -1182 -727 -1859 -9 -110 -8
-504 1 -600 12 -109 27 -226 41 -295 2 -11 6 -36 10 -55 49 -272 156 -595 283
-857 313 -646 812 -1179 1433 -1529 254 -144 461 -230 785 -327 111 -33 354
-83 458 -93 34 -3 65 -8 68 -9 29 -18 536 -26 709 -12 371 32 760 132 1110
285 119 53 324 156 350 177 8 6 54 36 103 65 48 29 86 55 84 56 -2 2 -399 6
-883 7 -483 2 -888 6 -899 9 -11 3 -47 9 -80 12 -232 26 -522 133 -725 268
-96 64 -117 81 -214 176 -228 222 -372 533 -415 898 -10 81 -8 424 2 441 3 5
8 31 12 58 7 61 54 237 66 250 5 5 9 16 9 24 0 27 97 213 152 292 183 263 432
435 744 513 54 14 90 22 119 26 6 1 -25 10 -68 21 -439 108 -750 374 -890 764
-83 231 -99 436 -61 785 19 183 115 450 219 612 200 310 560 535 965 603 19 3
42 8 50 10 19 5 102 15 205 25 44 4 442 8 884 8 442 1 805 3 807 5 6 5 -223
145 -321 196 -216 113 -495 221 -740 286 -128 34 -371 80 -476 91 -30 3 -67 8
-84 10 -35 5 -521 14 -527 10z"/>
<path d="M4027 5644 c-1 -1 -38 -4 -82 -8 -151 -13 -317 -57 -428 -112 -226
-115 -352 -305 -393 -594 -7 -51 -7 -254 0 -286 2 -12 7 -45 11 -74 22 -172
125 -352 259 -454 90 -68 219 -123 341 -145 33 -6 71 -14 85 -18 33 -8 1640
-13 1641 -4 1 3 2 385 3 849 1 557 -2 842 -9 843 -13 2 -1426 5 -1428 3z"/>
<path d="M6274 3498 l0 -2130 23 29 c23 28 169 240 188 274 6 10 27 47 48 83
130 225 223 442 327 761 10 33 58 225 66 265 22 115 34 193 39 240 4 30 8 61
11 68 25 78 25 661 -1 832 -2 14 -6 45 -10 70 -71 531 -285 1070 -603 1523
-41 59 -78 110 -81 112 -4 2 -7 -955 -7 -2127z"/>
<path d="M3780 3190 c-170 -28 -267 -63 -382 -136 -188 -120 -297 -306 -344
-589 -13 -77 -11 -327 2 -399 59 -308 236 -515 534 -621 82 -29 223 -61 310
-70 30 -3 78 -8 105 -12 50 -6 1431 -12 1450 -6 7 2 10 319 10 926 l0 922
-790 1 c-709 1 -801 0 -895 -16z"/>
</g>
</svg>
