<?xml version="1.0" encoding="utf-8"?>
<!-- Generator: Adobe Illustrator 16.0.0, SVG Export Plug-In . SVG Version: 6.00 Build 0)  -->
<!DOCTYPE svg PUBLIC "-//W3C//DTD SVG 1.1//EN" "http://www.w3.org/Graphics/SVG/1.1/DTD/svg11.dtd">
<svg version="1.1" id="Layer_1" xmlns="http://www.w3.org/2000/svg" xmlns:xlink="http://www.w3.org/1999/xlink" x="0px" y="0px"
	 width="203.234px" height="115px" viewBox="0 0 203.234 115" enable-background="new 0 0 203.234 115" xml:space="preserve">
<rect x="-516.333" y="-38.868" fill="#FFFFFF" stroke="#000000" stroke-miterlimit="10" width="218.09" height="218.091"/>
<text transform="matrix(-1 0 0 1 -430.9736 108.1406)" font-family="'MyriadPro-Regular'" font-size="137.7039">B</text>
<text transform="matrix(1 0 0 1 -464.0244 108.1465)" font-family="'MyriadPro-Regular'" font-size="137.7039">M</text>
<text transform="matrix(1 0 0 1 -384.667 108.1445)" font-family="'MyriadPro-Regular'" font-size="137.7039">R</text>
<text transform="matrix(1 0 0 1 -501.9863 128.4902)" font-family="'MyriadPro-Regular'" font-size="21.2638">Brock Maraee Rohloff</text>
<rect x="-777.68" y="-38.868" fill="none" stroke="#000000" stroke-miterlimit="10" width="218.09" height="218.091"/>
<text transform="matrix(-1 0 0 1 78.8887 94.0107)" fill="#434343" font-family="'Bahnschrift'" font-size="131.3148">B</text>
<text transform="matrix(1 0 0 1 45.3711 94.0166)" fill="#434343" font-family="'Bahnschrift'" font-size="131.3148">M</text>
<text transform="matrix(1 0 0 1 122.0469 94.0146)" fill="#434343" font-family="'Bahnschrift'" font-size="131.3148">R</text>
<text transform="matrix(1 0 0 1 0 113.8232)" fill="#434343" font-family="'Bahnschrift'" font-size="21.2638">Brock Maraee Rohloff</text>
<rect x="-253.56" y="-38.868" fill="#FFFFFF" stroke="#000000" stroke-miterlimit="10" width="218.091" height="218.091"/>
<text transform="matrix(-1 0 0 1 -176.8037 110.5684)" stroke="#000000" stroke-width="2" stroke-miterlimit="10" font-family="'PoiretOne-Regular'" font-size="150.2364">B</text>
<text transform="matrix(0.7339 0 0 1 -195.4961 110.5752)" stroke="#000000" stroke-width="2" stroke-miterlimit="10" font-family="'PoiretOne-Regular'" font-size="150.2364">M</text>
<text transform="matrix(1 0 0 1 -113.3721 110.5732)" stroke="#000000" stroke-width="2" stroke-miterlimit="10" font-family="'PoiretOne-Regular'" font-size="150.2364">R</text>
<text transform="matrix(1 0 0 1 -392.7656 255.75)" font-family="'MyriadPro-Regular'" font-size="12">Didone</text>
<text transform="matrix(1 0 0 1 -392.7656 255.75)" font-family="'MyriadPro-Regular'" font-size="12">Didone</text>
<text transform="matrix(1 0 0 1 -230.2129 132.9702)" stroke="#000000" stroke-miterlimit="10" font-family="'PoiretOne-Regular'" font-size="19.5268">Brock Maraee Rohloff</text>
<rect x="-516.58" y="190.957" fill="#FFFFFF" stroke="#000000" stroke-miterlimit="10" width="218.09" height="218.091"/>
<text transform="matrix(-1 0 0 1 -428.5591 309.1523)" font-family="'HoboStd'" font-size="122.593">B</text>
<text transform="matrix(1 0 0 1 -457.9829 309.1572)" font-family="'HoboStd'" font-size="122.593">M</text>
<text transform="matrix(1 0 0 1 -387.334 309.1553)" font-family="'HoboStd'" font-size="122.593">R</text>
<text transform="matrix(1 0 0 1 -512.082 346.0234)"><tspan x="0" y="0" font-family="'HoboStd'" font-size="21.2638">Brock</tspan><tspan x="56.008" y="0" font-family="'HoloLensMDL2Assets'" font-size="21.2638"> </tspan><tspan x="61.833" y="0" font-family="'HoboStd'" font-size="21.2638">Maraee</tspan><tspan x="133.767" y="0" font-family="'HoloLensMDL2Assets'" font-size="21.2638"> </tspan><tspan x="139.592" y="0" font-family="'HoboStd'" font-size="21.2638">Rohloff</tspan></text>
<rect x="-777.926" y="190.957" fill="#FFFFFF" stroke="#000000" stroke-miterlimit="10" width="218.09" height="218.091"/>
<text transform="matrix(-1 0 0 1 -688.0801 309.1543)" font-family="'Limelight-Regular'" font-size="117.8941">B</text>
<text transform="matrix(1 0 0 1 -653.708 309.1016)" font-family="'Limelight-Regular'" font-size="117.8048">R</text>
<text transform="matrix(1 0 0 1 -768.333 346.0234)" font-family="'Limelight-Regular'" font-size="17.3711">Brock Maraee Rohloff</text>
<rect x="-253.806" y="190.957" fill="#FFFFFF" stroke="#000000" stroke-miterlimit="10" width="218.091" height="218.091"/>
<text transform="matrix(-1 0 0 1 -168.4902 312.1533)" font-family="'Verdana'" font-size="124.0227">B</text>
<text transform="matrix(1 0 0 1 -198.2568 312.1592)" font-family="'Verdana'" font-size="124.0227">M</text>
<text transform="matrix(1 0 0 1 -126.7842 312.1572)" font-family="'Verdana'" font-size="124.0227">R</text>
<text transform="matrix(1 0 0 1 -246.5596 346.3398)" font-family="'Verdana'" font-size="18.9779">Brock Maraee Rohloff</text>
<text transform="matrix(1 0 0 1 -774.6201 175.8169)" fill="#A7A9AC" font-family="'Bahnschrift'" font-size="11.3087">:bahnschrift</text>
<text transform="matrix(1 0 0 1 -512.0825 175.8169)" fill="#A7A9AC" font-family="'Bahnschrift'" font-size="11.3087">:Myriad Pro</text>
<text transform="matrix(1 0 0 1 -249.2383 175.8169)" fill="#A7A9AC" font-family="'Bahnschrift'" font-size="11.3087">:Poiret One</text>
<text transform="matrix(0.7854 0 0 1 -709.1558 308.1973)" stroke="#000000" stroke-width="1.733" stroke-miterlimit="10" font-family="'PoiretOne-Regular'" font-size="105.7413">M</text>
<text transform="matrix(1 0 0 1 -774.6201 405.4834)" fill="#A7A9AC" font-family="'Bahnschrift'" font-size="11.3087">:Limelight + Poiret One</text>
<text transform="matrix(1 0 0 1 -512.082 405.4834)" fill="#A7A9AC" font-family="'Bahnschrift'" font-size="11.3087">:Hobo Std Medium</text>
<text transform="matrix(1 0 0 1 -248.5596 405.4834)" fill="#A7A9AC" font-family="'Bahnschrift'" font-size="11.3087">:Verdana</text>
<rect x="-230.116" y="136.209" width="175.78" height="4.957"/>
<path fill="#414042" stroke="#414042" stroke-width="2.5229" stroke-miterlimit="10" d="M141.964-139.044h1.328
	c10.864,0,21.036-4.483,30.512-13.457c9.476-8.969,14.214-19.551,14.214-31.744c0-12.191-4.644-22.805-13.93-31.839
	c-9.285-9.032-20.06-13.55-32.313-13.55h-8.147h-6.398L80.212-98.488L33.339-229.634H26.66h-6.063
	c-8.215,0-15.099,2.559-20.659,7.675c-5.558,5.118-8.339,11.656-8.339,19.616c0,4.803,1.549,9.698,4.643,14.688
	c3.099,4.993,6.729,8.244,10.897,9.76c-9.726,2.401-17.814,7.581-24.259,15.54c-6.442,7.96-9.665,17.976-9.665,30.04
	c0,12.066,4.614,22.552,13.836,31.459c9.224,8.907,20.405,13.362,33.546,13.362h6.063h4.174v-134.748l48.963,137.4l49.239-137.4
	v134.748h4.591h6.063v-45.105l43.02,45.105h8.15L141.964-139.044z M20.597-92.802h-1.518c-10.864,0-20.244-4.042-28.143-12.129
	c-7.895-8.085-11.847-17.688-11.847-28.807c0-11.117,3.919-20.688,11.751-28.712c7.835-8.021,17.247-12.034,28.238-12.034h1.518
	V-92.802z M20.597-179.601h-1.518c-5.685,0-10.707-2.305-15.066-6.918c-4.36-4.61-6.538-9.917-6.538-15.919
	c0-6,2.149-11.149,6.442-15.446c4.298-4.294,9.354-6.443,15.162-6.443h1.518V-179.601z M139.69-224.138h2.463
	c10.36,0,19.585,3.979,27.671,11.939c8.082,7.959,12.13,17.313,12.13,28.049c0,10.74-3.918,20.027-11.752,27.859
	c-7.834,7.835-16.866,11.75-27.101,11.75h-3.411V-224.138z"/>
<text transform="matrix(1 0 0 1 116.2344 263.6699)" fill="#414042" stroke="#414042" stroke-width="0.6" stroke-miterlimit="10" font-family="'PoiretOne-Regular'" font-size="25.7947">Brock Maraee Rohloff</text>
<path stroke="#000000" stroke-width="2.3506" stroke-miterlimit="10" d="M452.499-97.165h1.236c10.123,0,19.602-4.177,28.429-12.538
	c8.83-8.356,13.244-18.213,13.244-29.575c0-11.358-4.324-21.247-12.978-29.664c-8.651-8.415-18.689-12.625-30.107-12.625h-7.594
	h-4.727L405.279-59.378l-34.626-122.188h-4.929h-5.65c-7.652,0-14.068,2.383-19.247,7.152c-5.18,4.767-7.771,10.859-7.771,18.273
	c0,4.477,1.444,9.036,4.324,13.686c2.888,4.653,6.272,7.68,10.156,9.095c-9.065,2.236-16.598,7.063-22.604,14.478
	c-6.003,7.417-9.004,16.746-9.004,27.988c0,11.243,4.301,21.013,12.891,29.311c8.595,8.299,19.01,12.449,31.255,12.449h5.65h3.079
	v-125.545l36.168,128.017l36.368-128.017v125.545h3.39h5.65V-91.16l40.084,42.024h7.592L452.499-97.165z M360.074-54.08h-1.413
	c-10.123,0-18.863-3.766-26.222-11.3c-7.358-7.532-11.034-16.48-11.034-26.84c0-10.357,3.648-19.274,10.947-26.751
	c7.297-7.473,16.064-11.212,26.309-11.212h1.413V-54.08z M360.074-134.951h-1.413c-5.3,0-9.978-2.146-14.038-6.445
	c-4.063-4.294-6.091-9.24-6.091-14.831s2.002-10.389,6.002-14.392c4.004-4.001,8.715-6.002,14.127-6.002h1.413V-134.951z
	 M450.38-176.445h2.296c9.652,0,18.247,3.707,25.781,11.123c7.529,7.417,11.301,16.129,11.301,26.133
	c0,10.006-3.651,18.66-10.947,25.957c-7.302,7.3-15.718,10.947-25.254,10.947h-3.177V-176.445z"/>
<text transform="matrix(1 0 0 1 305.0645 -22.5005)" stroke="#000000" stroke-width="0.5243" stroke-miterlimit="10" font-family="'PoiretOne-Regular'" font-size="23.676">Brock Maraee Rohloff</text>
<path stroke="#000000" stroke-width="0.8966" stroke-miterlimit="10" d="M307.328,26.277h0.472c3.861,0,7.477-1.593,10.844-4.782
	c3.368-3.188,5.052-6.947,5.052-11.281c0-4.333-1.649-8.104-4.95-11.315c-3.3-3.21-7.129-4.816-11.484-4.816h-2.896h-1.803
	L289.316,40.69L276.108-5.917h-1.88h-2.155c-2.919,0-5.366,0.909-7.342,2.728c-1.976,1.818-2.964,4.142-2.964,6.97
	c0,1.708,0.551,3.447,1.649,5.22c1.102,1.775,2.393,2.93,3.874,3.469c-3.458,0.853-6.331,2.694-8.622,5.522
	c-2.29,2.829-3.435,6.388-3.435,10.676c0,4.289,1.641,8.015,4.917,11.18c3.278,3.166,7.251,4.749,11.922,4.749h2.155h1.175V-3.291
	l13.796,48.831l13.872-48.831v47.888h1.293h2.155v-16.03l15.29,16.03h2.896L307.328,26.277z M272.073,42.711h-0.539
	c-3.861,0-7.195-1.437-10.002-4.311c-2.807-2.873-4.209-6.286-4.209-10.238c0-3.951,1.392-7.352,4.176-10.204
	c2.783-2.851,6.128-4.277,10.035-4.277h0.539V42.711z M272.073,11.864h-0.539c-2.021,0-3.806-0.819-5.354-2.458
	c-1.55-1.638-2.323-3.524-2.323-5.657s0.764-3.963,2.289-5.49c1.527-1.526,3.324-2.29,5.389-2.29h0.539V11.864z M306.52-3.964h0.876
	c3.682,0,6.96,1.414,9.834,4.243c2.872,2.829,4.311,6.152,4.311,9.968c0,3.817-1.393,7.118-4.176,9.901
	c-2.785,2.785-5.995,4.176-9.633,4.176h-1.212V-3.964z"/>
<text transform="matrix(-1 0 0 1 -691.291 107.6621)" font-family="'Bahnschrift'" font-size="131.3148">B</text>
<text transform="matrix(1 0 0 1 -720.8081 107.668)" font-family="'Bahnschrift'" font-size="131.3148">M</text>
<text transform="matrix(1 0 0 1 -648.1328 107.666)" font-family="'Bahnschrift'" font-size="131.3148">R</text>
<text transform="matrix(1 0 0 1 -770.1792 127.4746)" font-family="'Bahnschrift'" font-size="21.2638">Brock Maraee Rohloff</text>
</svg>
